<svg aria-hidden="true" style="position: absolute; width: 0; height: 0; overflow: hidden;" version="1.1" xmlns="http://www.w3.org/2000/svg" xmlns:xlink="http://www.w3.org/1999/xlink">
<defs>
<symbol id="icon-email" viewBox="0 0 32 32">
<path d="M26.667 5.333h-21.333c-1.467 0-2.653 1.2-2.653 2.667l-0.013 16c0 1.467 1.2 2.667 2.667 2.667h21.333c1.467 0 2.667-1.2 2.667-2.667v-16c0-1.467-1.2-2.667-2.667-2.667zM26.133 11l-9.427 5.893c-0.427 0.267-0.987 0.267-1.413 0l-9.427-5.893c-0.333-0.213-0.533-0.573-0.533-0.96 0-0.893 0.973-1.427 1.733-0.96l8.933 5.587 8.933-5.587c0.76-0.467 1.733 0.067 1.733 0.96 0 0.387-0.2 0.747-0.533 0.96z"></path>
</symbol>
<symbol id="icon-close" viewBox="0 0 32 32">
<path d="M26.667 7.303l-1.97-1.97-7.808 7.808-7.808-7.808-1.97 1.97 7.808 7.808-7.808 7.808 1.97 1.97 7.808-7.808 7.808 7.808 1.97-1.97-7.808-7.808 7.808-7.808z"></path>
</symbol>
<symbol id="icon-person" viewBox="0 0 32 32">
<path fill="#f5f5f5" style="fill: var(--color1, #f5f5f5)" d="M0 0h32v32h-32v-32z"></path>
<path fill="#fff" style="fill: var(--color2, #fff)" d="M-119.111-416h853.333v1415.111h-853.333v-1415.111z"></path>
<path fill="#000" style="fill: var(--color3, #000)" d="M-119.111-309.333h853.333v711.111h-853.333v-711.111z"></path>
<path fill="#2f303a" style="fill: var(--color4, #2f303a)" opacity="0.4" d="M-119.111-309.333h853.333v711.111h-853.333v-711.111z"></path>
<path fill="#fff" style="fill: var(--color2, #fff)" d="M13.177-52.316v6.094h-17.514v-6.094h17.514zM-1.516-79.083v32.861h-7.922v-32.861h7.922zM10.92-66.038v5.891h-15.257v-5.891h15.257zM13.245-79.083v6.116h-17.582v-6.116h17.582zM32.042-76.285h8.215c1.986 0 3.814 0.324 5.484 0.971s3.122 1.572 4.356 2.776c1.234 1.204 2.189 2.656 2.866 4.356s1.016 3.611 1.016 5.733c0 2.046-0.339 3.897-1.016 5.552s-1.633 3.069-2.866 4.243c-1.234 1.174-2.686 2.076-4.356 2.708-1.67 0.617-3.498 0.925-5.484 0.925h-8.215c-2.001 0-3.844-0.308-5.529-0.925-1.685-0.632-3.152-1.527-4.401-2.686-1.234-1.173-2.197-2.58-2.889-4.22-0.677-1.655-1.016-3.506-1.016-5.552 0-2.122 0.338-4.033 1.016-5.733 0.692-1.7 1.655-3.16 2.889-4.379 1.249-1.219 2.716-2.152 4.401-2.799s3.528-0.971 5.529-0.971zM32.042-69.92c-1.204 0-2.287 0.271-3.25 0.813s-1.723 1.369-2.279 2.483c-0.557 1.099-0.835 2.505-0.835 4.221 0 1.189 0.166 2.227 0.497 3.114s0.79 1.617 1.377 2.189c0.587 0.572 1.264 1.001 2.031 1.286s1.587 0.429 2.46 0.429h8.26c1.174 0 2.227-0.256 3.16-0.767 0.933-0.527 1.67-1.317 2.212-2.37 0.557-1.053 0.835-2.362 0.835-3.927 0-1.279-0.158-2.385-0.474-3.318s-0.76-1.708-1.332-2.325c-0.557-0.617-1.211-1.076-1.964-1.377s-1.565-0.451-2.438-0.451h-8.26zM39.941-80.438v35.569h-7.606v-35.569h7.606zM83.317-52.316v6.094h-17.514v-6.094h17.514zM68.625-79.083v32.861h-7.922v-32.861h7.922zM81.060-66.038v5.891h-15.257v-5.891h15.257zM83.385-79.083v6.116h-17.582v-6.116h17.582zM97.195-79.083v32.861h-7.899v-32.861h7.899zM116.153-79.083l-11.804 19.861h-8.531l-0.948-7.155h5.394l6.319-12.707h9.569zM107.938-46.222l-7.696-14.377 5.755-5.304 11.285 19.681h-9.344zM137.953-79.083v32.861h-7.922v-32.861h7.922zM147.838-79.083v6.116h-27.467v-6.116h27.467zM161.445-58.342l11.804-20.741h7.921v32.861h-7.921v-20.719l-11.804 20.719h-7.922v-32.861h7.922v20.741zM202.203-60.193h-8.464l-0.044-5.191h6.86c1.234 0 2.219-0.135 2.956-0.406 0.738-0.286 1.271-0.7 1.602-1.241 0.347-0.542 0.519-1.219 0.519-2.031 0-0.933-0.172-1.685-0.519-2.257-0.345-0.572-0.894-0.985-1.646-1.241-0.738-0.271-1.692-0.406-2.868-0.406h-3.881v26.745h-7.922v-32.861h11.803c2.032 0 3.845 0.188 5.44 0.564 1.595 0.361 2.949 0.918 4.062 1.67 1.129 0.752 1.986 1.7 2.572 2.844 0.587 1.128 0.882 2.46 0.882 3.995 0 1.339-0.286 2.596-0.859 3.769s-1.527 2.129-2.866 2.866c-1.324 0.722-3.138 1.098-5.44 1.128l-2.188 2.054zM201.886-46.222h-10.066l2.708-6.094h7.358c1.083 0 1.948-0.166 2.596-0.497 0.661-0.346 1.136-0.797 1.422-1.354 0.3-0.572 0.452-1.204 0.452-1.896 0-0.843-0.144-1.572-0.428-2.189-0.272-0.617-0.708-1.091-1.31-1.422-0.601-0.346-1.406-0.519-2.414-0.519h-6.658l0.044-5.191h7.968l1.851 2.076c2.196-0.090 3.934 0.218 5.212 0.925 1.294 0.707 2.22 1.64 2.777 2.799s0.834 2.37 0.834 3.634c0 2.152-0.466 3.95-1.399 5.394-0.917 1.444-2.293 2.528-4.13 3.25s-4.108 1.083-6.816 1.083zM243.547-66.038v6.094h-16.859v-6.094h16.859zM229.328-79.083v32.861h-7.922v-32.861h7.922zM248.873-79.083v32.861h-7.899v-32.861h7.899zM265.099-79.083v32.861h-7.9v-32.861h7.9zM300.843-57.372h-8.171v-6.116h8.171c1.113 0 2.016-0.188 2.708-0.564 0.693-0.376 1.196-0.895 1.513-1.557 0.331-0.677 0.496-1.437 0.496-2.279 0-0.903-0.165-1.738-0.496-2.505-0.316-0.767-0.82-1.384-1.513-1.851-0.692-0.481-1.595-0.722-2.708-0.722h-5.191v26.745h-7.922v-32.861h13.113c2.633 0 4.898 0.482 6.793 1.444 1.911 0.963 3.378 2.287 4.402 3.972 1.022 1.67 1.534 3.581 1.534 5.733 0 2.122-0.512 3.972-1.534 5.552-1.024 1.58-2.491 2.813-4.402 3.701-1.895 0.873-4.16 1.309-6.793 1.309zM329.029-79.083v32.861h-7.9v-32.861h7.9zM337.196-79.083h7.945v26.767h8.169v-26.767h7.924v26.767h8.057v-26.767h7.899v32.861h-39.993v-32.861zM407.452-52.316v6.094h-17.515v-6.094h17.515zM392.759-79.083v32.861h-7.922v-32.861h7.922zM405.195-66.038v5.891h-15.257v-5.891h15.257zM407.52-79.083v6.116h-17.582v-6.116h17.582zM435.616-66.038v6.094h-16.859v-6.094h16.859zM421.397-79.083v32.861h-7.922v-32.861h7.922zM440.942-79.083v32.861h-7.899v-32.861h7.899zM470.889-66.038v6.094h-16.859v-6.094h16.859zM456.67-79.083v32.861h-7.922v-32.861h7.922zM476.217-79.083v32.861h-7.9v-32.861h7.9zM501.131-57.755h-8.78l-2.347-0.971c-2.679-0.843-4.716-2.091-6.117-3.746-1.399-1.67-2.098-3.799-2.098-6.387 0-2.257 0.503-4.138 1.511-5.642 1.008-1.52 2.437-2.663 4.288-3.431s4.048-1.151 6.59-1.151h11.918v32.861h-7.945v-26.745h-3.973c-1.579 0-2.722 0.414-3.429 1.241-0.708 0.812-1.061 2.001-1.061 3.566 0 1.204 0.165 2.151 0.496 2.844 0.347 0.692 0.852 1.189 1.513 1.49 0.661 0.286 1.49 0.429 2.482 0.429h6.907l0.046 5.642zM495.036-60.712l-6.974 14.49h-8.622l6.885-14.49h8.711zM553.712-52.316v6.094h-23.090v-6.094h23.090zM533.241-52.316v14.151h-7.335l-0.542-14.151h7.877zM559.106-52.316l-0.836 14.174h-7.109v-14.174h7.945zM550.258-79.083v6.116h-16.498v-6.116h16.498zM555.584-79.083v32.861h-7.876v-32.861h7.876zM533.241-79.083h7.899l-0.971 13.474c-0.165 2.302-0.428 4.303-0.789 6.004s-0.789 3.167-1.285 4.401c-0.498 1.234-1.038 2.295-1.627 3.182-0.587 0.888-1.204 1.663-1.851 2.325-0.631 0.662-1.262 1.264-1.895 1.806-0.631 0.542-1.241 1.099-1.828 1.67h-4.807v-6.094h1.579c0.468-0.331 0.933-0.775 1.399-1.332 0.482-0.572 0.933-1.346 1.355-2.325s0.789-2.249 1.106-3.814 0.556-3.506 0.722-5.823l0.994-13.474zM587.269-79.083v6.116h-16.972v-6.116h16.972zM592.619-79.083v32.861h-7.922v-32.861h7.922zM569.756-79.083h7.876l-0.857 16.701c-0.135 2.528-0.391 4.709-0.768 6.545-0.375 1.821-0.88 3.355-1.511 4.604-0.633 1.234-1.392 2.219-2.281 2.957-0.887 0.737-1.918 1.264-3.092 1.58-1.159 0.316-2.46 0.474-3.904 0.474h-1.918v-6.094l0.857-0.090c0.692-0.075 1.301-0.263 1.828-0.564 0.528-0.316 0.98-0.782 1.355-1.399 0.391-0.617 0.715-1.407 0.971-2.37s0.459-2.129 0.61-3.498c0.165-1.384 0.277-3.002 0.338-4.852l0.498-13.993zM617.442-57.755h-8.779l-2.348-0.971c-2.677-0.843-4.716-2.091-6.116-3.746-1.399-1.67-2.1-3.799-2.1-6.387 0-2.257 0.505-4.138 1.513-5.642 1.008-1.52 2.437-2.663 4.288-3.431s4.048-1.151 6.59-1.151h11.916v32.861h-7.945v-26.745h-3.972c-1.58 0-2.724 0.414-3.431 1.241-0.706 0.812-1.060 2.001-1.060 3.566 0 1.204 0.165 2.151 0.496 2.844 0.347 0.692 0.85 1.189 1.513 1.49 0.661 0.286 1.488 0.429 2.482 0.429h6.907l0.044 5.642zM611.348-60.712l-6.972 14.49h-8.622l6.884-14.49h8.711zM107.664 14.474h-8.464l-0.045-5.191h6.861c1.234 0 2.219-0.135 2.957-0.406 0.737-0.286 1.271-0.7 1.603-1.241 0.346-0.542 0.519-1.219 0.519-2.031 0-0.933-0.173-1.685-0.519-2.257s-0.895-0.986-1.648-1.241c-0.737-0.271-1.693-0.406-2.866-0.406h-3.882v26.745h-7.922v-32.861h11.804c2.031 0 3.844 0.188 5.439 0.564 1.595 0.361 2.949 0.918 4.062 1.67 1.129 0.752 1.986 1.7 2.573 2.844 0.587 1.128 0.88 2.46 0.88 3.995 0 1.339-0.286 2.596-0.858 3.769s-1.527 2.129-2.866 2.866c-1.324 0.722-3.137 1.098-5.439 1.128l-2.189 2.054zM107.348 28.444h-10.066l2.708-6.094h7.358c1.083 0 1.949-0.166 2.596-0.497 0.662-0.346 1.136-0.797 1.422-1.354 0.301-0.572 0.451-1.204 0.451-1.896 0-0.843-0.143-1.572-0.429-2.189-0.271-0.617-0.707-1.091-1.309-1.422-0.602-0.346-1.407-0.519-2.415-0.519h-6.658l0.045-5.191h7.967l1.851 2.076c2.197-0.090 3.935 0.218 5.213 0.925 1.294 0.707 2.219 1.64 2.776 2.799s0.835 2.37 0.835 3.634c0 2.152-0.466 3.95-1.399 5.394-0.918 1.444-2.295 2.528-4.13 3.25s-4.108 1.083-6.816 1.083zM140.794 2.49l-8.012 25.955h-8.509l12.075-32.861h5.394l-0.948 6.906zM147.429 28.444l-8.035-25.955-1.038-6.906h5.462l12.142 32.861h-8.531zM147.113 16.189v6.116h-16.859v-6.116h16.859zM160.968-4.417h7.945v26.767h8.17v-26.767h7.922v26.767h8.057v-26.767h7.9v32.861h-39.994v-32.861zM236.414 11.359v1.332c0 2.513-0.354 4.77-1.060 6.771-0.693 1.986-1.678 3.686-2.956 5.101-1.28 1.399-2.791 2.475-4.537 3.227-1.746 0.737-3.671 1.106-5.778 1.106-2.123 0-4.062-0.369-5.824-1.106-1.744-0.752-3.264-1.828-4.558-3.227-1.278-1.414-2.272-3.114-2.98-5.101-0.692-2.001-1.038-4.258-1.038-6.771v-1.332c0-2.513 0.347-4.77 1.038-6.771 0.708-2.001 1.692-3.701 2.956-5.101 1.28-1.414 2.791-2.49 4.537-3.227 1.76-0.752 3.701-1.128 5.822-1.128 2.107 0 4.034 0.376 5.778 1.128 1.762 0.737 3.28 1.813 4.56 3.227 1.278 1.399 2.272 3.1 2.98 5.101 0.706 2.001 1.060 4.258 1.060 6.771zM228.38 12.691v-1.377c0-1.625-0.144-3.054-0.428-4.288-0.272-1.249-0.677-2.295-1.22-3.137s-1.211-1.475-2.009-1.896c-0.782-0.436-1.676-0.655-2.686-0.655-1.052 0-1.97 0.218-2.752 0.655-0.782 0.421-1.438 1.053-1.964 1.896s-0.924 1.888-1.196 3.137c-0.256 1.234-0.384 2.663-0.384 4.288v1.377c0 1.61 0.128 3.039 0.384 4.288 0.272 1.234 0.67 2.279 1.196 3.137 0.542 0.858 1.204 1.505 1.986 1.941 0.798 0.436 1.723 0.655 2.777 0.655 1.008 0 1.902-0.218 2.686-0.655 0.782-0.436 1.436-1.083 1.963-1.941 0.542-0.858 0.948-1.903 1.22-3.137 0.284-1.249 0.428-2.678 0.428-4.288zM265.436-4.417v6.116h-14.286v26.745h-7.899v-32.861h22.185zM298.114 11.359v1.332c0 2.513-0.354 4.77-1.060 6.771-0.693 1.986-1.678 3.686-2.956 5.101-1.28 1.399-2.791 2.475-4.537 3.227-1.746 0.737-3.671 1.106-5.778 1.106-2.123 0-4.062-0.369-5.824-1.106-1.744-0.752-3.264-1.828-4.558-3.227-1.278-1.414-2.272-3.114-2.98-5.101-0.692-2.001-1.038-4.258-1.038-6.771v-1.332c0-2.513 0.347-4.77 1.038-6.771 0.708-2.001 1.692-3.701 2.956-5.101 1.28-1.414 2.791-2.49 4.537-3.227 1.76-0.752 3.701-1.128 5.822-1.128 2.107 0 4.034 0.376 5.778 1.128 1.762 0.737 3.28 1.813 4.56 3.227 1.278 1.399 2.272 3.1 2.98 5.101 0.706 2.001 1.060 4.258 1.060 6.771zM290.080 12.691v-1.377c0-1.625-0.144-3.054-0.428-4.288-0.272-1.249-0.677-2.295-1.22-3.137s-1.211-1.475-2.009-1.896c-0.782-0.436-1.678-0.655-2.686-0.655-1.052 0-1.97 0.218-2.752 0.655-0.784 0.421-1.438 1.053-1.964 1.896s-0.924 1.888-1.196 3.137c-0.256 1.234-0.384 2.663-0.384 4.288v1.377c0 1.61 0.128 3.039 0.384 4.288 0.272 1.234 0.67 2.279 1.196 3.137 0.542 0.858 1.204 1.505 1.986 1.941 0.798 0.436 1.723 0.655 2.777 0.655 1.008 0 1.902-0.218 2.686-0.655 0.782-0.436 1.436-1.083 1.963-1.941 0.542-0.858 0.948-1.903 1.22-3.137 0.284-1.249 0.428-2.678 0.428-4.288zM341.465-4.417v6.116h-14.286v26.745h-7.9v-32.861h22.187zM324.244 6.891h7.065c2.663 0 4.98 0.444 6.951 1.332s3.492 2.129 4.56 3.724c1.083 1.595 1.625 3.461 1.625 5.597 0 1.61-0.309 3.084-0.926 4.424-0.617 1.324-1.504 2.475-2.663 3.453-1.143 0.963-2.519 1.708-4.13 2.235s-3.415 0.79-5.417 0.79h-12.007v-32.861h7.945v26.767h4.062c1.129 0 2.076-0.218 2.844-0.655 0.782-0.436 1.376-1.016 1.783-1.738 0.405-0.737 0.608-1.557 0.608-2.46 0-0.873-0.203-1.648-0.608-2.325-0.407-0.677-1.001-1.211-1.783-1.602-0.768-0.391-1.716-0.587-2.844-0.587h-7.065v-6.094zM359.36-4.417v32.861h-7.9v-32.861h7.9zM381.045 12.714h-5.664v-3.972h4.197c0.978 0 1.769-0.158 2.37-0.474 0.603-0.331 1.045-0.797 1.332-1.399 0.286-0.617 0.43-1.339 0.43-2.167 0-0.617-0.167-1.189-0.498-1.715-0.316-0.527-0.805-0.948-1.467-1.264s-1.504-0.474-2.528-0.474c-0.782 0-1.497 0.128-2.144 0.384s-1.159 0.632-1.534 1.128c-0.377 0.482-0.565 1.083-0.565 1.806h-7.899c0-1.475 0.324-2.791 0.971-3.95s1.527-2.144 2.64-2.957c1.129-0.813 2.423-1.429 3.883-1.851 1.474-0.436 3.024-0.655 4.649-0.655 1.881 0 3.58 0.203 5.1 0.609 1.52 0.391 2.821 0.978 3.906 1.76 1.097 0.782 1.94 1.76 2.526 2.934 0.588 1.159 0.882 2.505 0.882 4.040 0 1.128-0.256 2.189-0.768 3.182-0.496 0.993-1.211 1.866-2.144 2.618s-2.053 1.347-3.364 1.783c-1.294 0.421-2.731 0.632-4.311 0.632zM375.381 10.705h5.664c1.762 0 3.326 0.188 4.695 0.564s2.528 0.925 3.476 1.648c0.964 0.722 1.692 1.617 2.19 2.686 0.496 1.053 0.745 2.264 0.745 3.634 0 1.535-0.324 2.904-0.971 4.108-0.633 1.189-1.527 2.197-2.686 3.024s-2.528 1.452-4.108 1.873c-1.564 0.421-3.287 0.632-5.168 0.632-1.52 0-3.031-0.181-4.537-0.542-1.488-0.376-2.843-0.948-4.062-1.715-1.218-0.767-2.196-1.753-2.933-2.957-0.722-1.204-1.084-2.648-1.084-4.333h7.945c0 0.662 0.196 1.256 0.587 1.783 0.407 0.527 0.964 0.94 1.671 1.241s1.511 0.451 2.414 0.451c1.054 0 1.948-0.166 2.686-0.497 0.752-0.331 1.324-0.782 1.716-1.354s0.587-1.204 0.587-1.896c0-0.813-0.098-1.497-0.293-2.054-0.196-0.572-0.489-1.031-0.88-1.377-0.391-0.361-0.88-0.617-1.468-0.767-0.571-0.165-1.234-0.248-1.986-0.248h-4.197v-3.905zM421.737 8.628v6.094h-16.86v-6.094h16.86zM407.518-4.417v32.861h-7.922v-32.861h7.922zM427.063-4.417v32.861h-7.9v-32.861h7.9zM457.483 22.351v6.094h-17.513v-6.094h17.513zM442.791-4.417v32.861h-7.922v-32.861h7.922zM455.227 8.628v5.891h-15.257v-5.891h15.257zM457.552-4.417v6.116h-17.582v-6.116h17.582zM482.194 17.318h7.9c-0.107 2.287-0.724 4.303-1.851 6.049-1.129 1.745-2.693 3.107-4.695 4.085-1.986 0.963-4.332 1.444-7.042 1.444-2.197 0-4.16-0.369-5.89-1.106-1.716-0.737-3.175-1.798-4.379-3.182-1.189-1.384-2.1-3.062-2.731-5.033-0.617-1.971-0.926-4.19-0.926-6.658v-1.783c0-2.468 0.324-4.687 0.971-6.658 0.661-1.986 1.595-3.671 2.798-5.056 1.22-1.399 2.679-2.468 4.379-3.205s3.589-1.106 5.666-1.106c2.859 0 5.273 0.512 7.244 1.535s3.499 2.43 4.581 4.221c1.083 1.775 1.723 3.799 1.918 6.071h-7.899c-0.030-1.234-0.242-2.264-0.633-3.092-0.391-0.843-1.008-1.475-1.851-1.896s-1.963-0.632-3.362-0.632c-0.98 0-1.829 0.181-2.551 0.542s-1.324 0.933-1.806 1.715c-0.48 0.782-0.843 1.798-1.083 3.047-0.226 1.234-0.338 2.723-0.338 4.469v1.828c0 1.745 0.105 3.235 0.315 4.469 0.212 1.234 0.549 2.242 1.017 3.024 0.466 0.782 1.068 1.362 1.804 1.738 0.752 0.361 1.671 0.542 2.754 0.542 1.204 0 2.219-0.188 3.047-0.564 0.827-0.391 1.467-0.978 1.918-1.76 0.452-0.797 0.692-1.813 0.722-3.047zM507.019 16.054l7.764-20.471h8.373l-11.083 26.068c-0.421 0.963-0.91 1.881-1.467 2.753-0.542 0.873-1.188 1.648-1.941 2.325-0.736 0.677-1.609 1.211-2.617 1.602s-2.19 0.587-3.543 0.587c-0.332 0-0.738-0.007-1.22-0.023-0.466 0-0.873-0.007-1.22-0.023l-0.135-6.139c0.196 0.045 0.468 0.075 0.812 0.090 0.347 0 0.596 0 0.745 0 0.903 0 1.618-0.105 2.144-0.316 0.528-0.226 0.94-0.557 1.243-0.993 0.315-0.451 0.587-1.023 0.812-1.715l1.332-3.747zM502.617-4.417l6.725 14.264 2.574 9.118h-5.689l-12.028-23.382h8.418z"></path>
<path fill="#000" style="fill: var(--color3, #000)" opacity="0.2" d="M-119.111-416h853.333v1415.111h-853.333v-1415.111z"></path>
<path fill="#fff" style="fill: var(--color2, #fff)" d="M-92.444-243.556c0-3.927 3.184-7.111 7.111-7.111h785.778c3.927 0 7.111 3.184 7.111 7.111v1068.444c0 3.927-3.184 7.111-7.111 7.111h-785.778c-3.927 0-7.111-3.184-7.111-7.111v-1068.444z"></path>
<path fill="none" stroke="#212121" style="stroke: var(--color5, #212121)" stroke-linejoin="miter" stroke-linecap="butt" stroke-miterlimit="4" stroke-width="1.7778" d="M-14.222-18.667h643.556c3.436 0 6.222 2.786 6.222 6.222v56.889c0 3.436-2.786 6.222-6.222 6.222h-643.556c-3.436 0-6.222-2.786-6.222-6.222v-56.889c0-3.436 2.786-6.222 6.222-6.222z"></path>
<path fill="#212121" style="fill: var(--color5, #212121)" d="M16 16c2.947 0 5.333-2.387 5.333-5.333s-2.387-5.333-5.333-5.333c-2.947 0-5.333 2.387-5.333 5.333s2.387 5.333 5.333 5.333zM16 18.667c-3.56 0-10.667 1.787-10.667 5.333v1.333c0 0.733 0.6 1.333 1.333 1.333h18.667c0.733 0 1.333-0.6 1.333-1.333v-1.333c0-3.547-7.107-5.333-10.667-5.333z"></path>
</symbol>
<symbol id="icon-phone" viewBox="0 0 32 32">
<path d="M24.881 19.774l-3.268-0.373c-0.785-0.090-1.557 0.18-2.11 0.733l-2.367 2.367c-3.641-1.853-6.626-4.825-8.478-8.478l2.38-2.38c0.553-0.553 0.823-1.325 0.733-2.11l-0.373-3.242c-0.154-1.299-1.248-2.277-2.56-2.277h-2.226c-1.454 0-2.663 1.209-2.573 2.663 0.682 10.987 9.469 19.761 20.443 20.443 1.454 0.090 2.663-1.119 2.663-2.573v-2.226c0.013-1.299-0.965-2.393-2.264-2.547z"></path>
</symbol>
</defs>
</svg>
